<svg xmlns="http://www.w3.org/2000/svg" version="1.1" xmlns:xlink="http://www.w3.org/1999/xlink" width="188" height="222"><svg xmlns="http://www.w3.org/2000/svg" version="1.1" xmlns:xlink="http://www.w3.org/1999/xlink" width="188" height="222"><svg width="188" height="222" viewBox="0 0 188 222" fill="none" xmlns="http://www.w3.org/2000/svg">
<g clip-path="url(#clip0_832_3163)">
<path d="M110.824 0.844225L112.442 1.47737C119.078 4.00995 122.408 11.467 119.876 18.1033L76.5403 131.389C72.7884 141.191 68.4502 147.992 63.3146 151.861C53.2312 159.529 40.3807 161.476 26.1232 156.012C18.2441 152.987 12.0768 148.883 7.80891 143.607C-0.773728 132.89 -2.76696 122.056 4.19763 103.859L21.6912 58.1087C24.2238 51.4724 31.6808 48.1425 38.3171 50.6751C44.9534 53.2077 48.2833 60.6647 45.7507 67.301L28.3979 112.676C23.9189 124.378 25.4197 131.53 33.9555 134.79C42.4912 138.049 47.486 135.282 52.5277 122.056L94.1277 8.44197C96.5899 1.68842 104.117 -1.73526 110.824 0.844225Z" fill="#7C80F9"></path>
<path d="M133.641 168.534L129.115 146.35C126.653 134.25 109.862 133.031 105.641 144.615L80.7612 213.042C78.4162 219.49 71.2406 222.75 64.8388 220.264L64.0884 219.959C57.8507 217.521 54.7084 210.533 57.0769 204.248L107.517 70.1619C109.886 63.8539 116.944 60.6412 123.276 63.0331L126.23 64.1353C130.193 65.6361 133.125 69.0832 133.922 73.2573L138.377 96.2146C140.746 108.432 157.724 109.698 161.898 97.9968L164.149 91.6888C166.447 85.2636 173.576 81.9571 179.977 84.349C186.285 86.7175 189.498 93.7758 187.106 100.107L160.209 171.582C157.841 177.89 150.782 181.103 144.451 178.711L141.309 177.515C137.369 176.038 134.485 172.638 133.641 168.51V168.534Z" fill="#7C80F9"></path>
</g>
<defs>
<clipPath id="clip0_832_3163">
<rect width="187.88" height="221.085" fill="white"></rect>
</clipPath>
</defs>
</svg></svg><style>@media (prefers-color-scheme: light) { :root { filter: none; } }
@media (prefers-color-scheme: dark) { :root { filter: none; } }
</style></svg>