<svg width="369" height="114" viewBox="0 0 369 114" fill="none" xmlns="http://www.w3.org/2000/svg">
<rect y="0.135864" width="369" height="113.687" rx="9.63446" fill="#353331"/>
<line x1="19.2688" y1="56.4974" x2="350.694" y2="56.4974" stroke="#E83D4D" stroke-width="0.963446"/>
<line x1="184.5" y1="11.6973" x2="184.5" y2="43.491" stroke="#E83D4D" stroke-width="0.963446"/>
<line x1="184.5" y1="69.5039" x2="184.5" y2="101.298" stroke="#E83D4D" stroke-width="0.963446"/>
<path d="M74.5276 18.6973V13.2634H76.4853C77.0711 13.2634 77.5669 13.3688 77.9729 13.5794C78.3788 13.7901 78.6897 14.0984 78.9055 14.5043C79.1213 14.9051 79.2292 15.3959 79.2292 15.9765C79.2292 16.5571 79.1213 17.0504 78.9055 17.4563C78.6897 17.8623 78.3762 18.1706 77.9651 18.3813C77.5592 18.5919 77.0659 18.6973 76.4853 18.6973H74.5276ZM75.2983 18.0267H76.439C77.0865 18.0267 77.5798 17.8597 77.9189 17.5257C78.258 17.1866 78.4276 16.6702 78.4276 15.9765C78.4276 15.2828 78.258 14.769 77.9189 14.435C77.5798 14.101 77.0865 13.934 76.439 13.934H75.2983V18.0267ZM80.5943 18.6973V13.2634H81.365V18.6973H80.5943ZM84.7925 18.7666C84.4945 18.7666 84.2093 18.7435 83.9369 18.6973C83.6697 18.6562 83.4231 18.5919 83.197 18.5046C82.9761 18.4121 82.7808 18.299 82.6112 18.1654L82.8887 17.5334C83.0634 17.667 83.2484 17.7749 83.4437 17.8571C83.6441 17.9394 83.8573 17.9984 84.0834 18.0344C84.3095 18.0652 84.5458 18.0807 84.7925 18.0807C85.2087 18.0807 85.5247 18.0036 85.7405 17.8494C85.9615 17.6901 86.0719 17.4692 86.0719 17.1866C86.0719 17.0376 86.036 16.9142 85.964 16.8166C85.8972 16.719 85.7868 16.6393 85.6326 16.5777C85.4836 16.516 85.2883 16.4621 85.0468 16.4158L84.1605 16.2463C83.6569 16.1486 83.2921 15.9765 83.066 15.7299C82.845 15.4781 82.7346 15.1595 82.7346 14.7741C82.7346 14.4555 82.8245 14.1781 83.0043 13.9417C83.1893 13.7053 83.4411 13.5229 83.7597 13.3945C84.0834 13.2609 84.4508 13.1941 84.8619 13.1941C85.1188 13.1941 85.3603 13.2172 85.5864 13.2634C85.8176 13.3097 86.0283 13.3816 86.2184 13.4792C86.4085 13.5717 86.5755 13.6873 86.7194 13.8261L86.4419 14.4504C86.2261 14.2397 85.9872 14.0933 85.7251 14.0111C85.463 13.9237 85.1727 13.88 84.8541 13.88C84.5972 13.88 84.366 13.916 84.1605 13.9879C83.9549 14.0547 83.7931 14.1549 83.6749 14.2885C83.5618 14.417 83.5053 14.5789 83.5053 14.7741C83.5053 14.9899 83.5721 15.1595 83.7057 15.2828C83.8445 15.4061 84.0834 15.5012 84.4225 15.568L85.3012 15.7376C85.8304 15.8352 86.221 16.0022 86.4727 16.2386C86.7245 16.4698 86.8504 16.7729 86.8504 17.148C86.8504 17.4666 86.7656 17.7467 86.5961 17.9882C86.4265 18.2297 86.1876 18.4198 85.8793 18.5585C85.5709 18.6973 85.2087 18.7666 84.7925 18.7666ZM89.2661 18.6973V13.9417H87.3315V13.2634H91.9714V13.9417H90.0368V18.6973H89.2661ZM91.781 18.6973L94.1857 13.2634H94.8717L97.2765 18.6973H96.4672L95.812 17.1558L96.1743 17.4101H92.8754L93.2377 17.1558L92.5825 18.6973H91.781ZM94.5094 14.1267L93.3225 16.9168L93.1298 16.755H95.9199L95.7272 16.9168L94.5403 14.1267H94.5094ZM98.2976 18.6973V13.2634H98.9759L102.205 17.5565H102.182V13.2634H102.922V18.6973H102.221L99.0144 14.4273H99.0375V18.6973H98.2976ZM106.866 18.7743C106.337 18.7743 105.879 18.6613 105.494 18.4352C105.108 18.2091 104.81 17.888 104.6 17.4718C104.389 17.0556 104.284 16.5571 104.284 15.9765C104.284 15.3959 104.389 14.9 104.6 14.4889C104.81 14.0727 105.108 13.7541 105.494 13.5332C105.879 13.3071 106.337 13.1941 106.866 13.1941C107.241 13.1941 107.585 13.2506 107.899 13.3636C108.217 13.4715 108.487 13.636 108.708 13.8569L108.423 14.4658C108.186 14.2603 107.945 14.1138 107.698 14.0265C107.452 13.934 107.179 13.8877 106.881 13.8877C106.321 13.8877 105.882 14.065 105.563 14.4196C105.245 14.7741 105.085 15.2931 105.085 15.9765C105.085 16.6599 105.245 17.1814 105.563 17.5411C105.882 17.8957 106.321 18.073 106.881 18.073C107.179 18.073 107.452 18.0293 107.698 17.9419C107.945 17.8494 108.186 17.7004 108.423 17.4949L108.708 18.1038C108.487 18.3196 108.217 18.4866 107.899 18.6048C107.585 18.7178 107.241 18.7743 106.866 18.7743ZM109.972 18.6973V13.2634H113.564V13.9263H110.735V15.6142H113.402V16.2771H110.735V18.0344H113.564V18.6973H109.972Z" fill="white"/>
<path d="M81.0158 71.6866V66.2528H82.9735C83.5593 66.2528 84.0551 66.3581 84.4611 66.5688C84.867 66.7795 85.1779 67.0878 85.3937 67.4937C85.6095 67.8945 85.7174 68.3852 85.7174 68.9659C85.7174 69.5465 85.6095 70.0398 85.3937 70.4457C85.1779 70.8517 84.8644 71.16 84.4534 71.3706C84.0474 71.5813 83.5541 71.6866 82.9735 71.6866H81.0158ZM81.7865 71.0161H82.9273C83.5747 71.0161 84.068 70.8491 84.4071 70.5151C84.7462 70.176 84.9158 69.6596 84.9158 68.9659C84.9158 68.2722 84.7462 67.7584 84.4071 67.4244C84.068 67.0904 83.5747 66.9234 82.9273 66.9234H81.7865V71.0161ZM89.2175 71.756C88.5032 71.756 87.956 71.571 87.5758 71.2011C87.2007 70.8311 87.0131 70.2839 87.0131 69.5594V66.2528H87.7839V69.5516C87.7839 70.0655 87.9046 70.4432 88.1461 70.6847C88.3928 70.921 88.7499 71.0392 89.2175 71.0392C89.6902 71.0392 90.0473 70.921 90.2888 70.6847C90.5303 70.4432 90.6511 70.0655 90.6511 69.5516V66.2528H91.4295V69.5594C91.4295 70.2787 91.2394 70.826 90.8592 71.2011C90.4841 71.571 89.9368 71.756 89.2175 71.756ZM92.9459 71.6866V66.2528H95.2274C95.8234 66.2528 96.2808 66.389 96.5993 66.6613C96.9231 66.9285 97.0849 67.3165 97.0849 67.8252C97.0849 68.1129 97.0258 68.3621 96.9076 68.5728C96.7946 68.7835 96.6353 68.953 96.4298 69.0815C96.2294 69.2048 95.9904 69.287 95.713 69.3281L95.7361 69.3204L95.8132 69.3358C95.9365 69.3615 96.047 69.4181 96.1446 69.5054C96.2474 69.5876 96.345 69.7212 96.4375 69.9062L97.3855 71.6866H96.5377L95.6436 69.9987C95.5717 69.8548 95.492 69.7469 95.4047 69.675C95.3173 69.5979 95.2145 69.5465 95.0964 69.5208C94.9833 69.49 94.8471 69.4746 94.6879 69.4746H93.7167V71.6866H92.9459ZM93.7167 68.8348H95.1657C95.5614 68.8348 95.8517 68.7552 96.0367 68.5959C96.2217 68.4315 96.3142 68.1848 96.3142 67.856C96.3142 67.5271 96.2191 67.2882 96.029 67.1392C95.8389 66.985 95.5408 66.908 95.1349 66.908H93.7167V68.8348ZM98.5234 71.6866V66.2528H102.115V66.9157H99.2865V68.6036H101.953V69.2665H99.2865V71.0238H102.115V71.6866H98.5234ZM100.073 65.7904L100.982 64.4647H101.899L100.712 65.7904H100.073ZM103.484 71.6866V66.2528H107.075V66.9157H104.247V68.6036H106.914V69.2665H104.247V71.0238H107.075V71.6866H103.484Z" fill="white"/>
<path d="M249.87 18.6973L247.512 13.2634H248.352L250.24 17.7801H250.194L252.082 13.2634H252.907L250.548 18.6973H249.87ZM253.702 18.6973V13.2634H254.473V18.6973H253.702ZM257.369 18.6973V13.9417H255.434V13.2634H260.074V13.9417H258.139V18.6973H257.369ZM261.048 18.6973V13.2634H264.64V13.9263H261.812V15.6142H264.478V16.2771H261.812V18.0344H264.64V18.6973H261.048ZM267.783 18.7666C267.485 18.7666 267.2 18.7435 266.928 18.6973C266.661 18.6562 266.414 18.5919 266.188 18.5046C265.967 18.4121 265.772 18.299 265.602 18.1654L265.88 17.5334C266.054 17.667 266.239 17.7749 266.434 17.8571C266.635 17.9394 266.848 17.9984 267.074 18.0344C267.3 18.0652 267.537 18.0807 267.783 18.0807C268.199 18.0807 268.515 18.0036 268.731 17.8494C268.952 17.6901 269.063 17.4692 269.063 17.1866C269.063 17.0376 269.027 16.9142 268.955 16.8166C268.888 16.719 268.778 16.6393 268.623 16.5777C268.474 16.516 268.279 16.4621 268.038 16.4158L267.151 16.2463C266.648 16.1486 266.283 15.9765 266.057 15.7299C265.836 15.4781 265.725 15.1595 265.725 14.7741C265.725 14.4555 265.815 14.1781 265.995 13.9417C266.18 13.7053 266.432 13.5229 266.75 13.3945C267.074 13.2609 267.442 13.1941 267.853 13.1941C268.11 13.1941 268.351 13.2172 268.577 13.2634C268.808 13.3097 269.019 13.3816 269.209 13.4792C269.399 13.5717 269.566 13.6873 269.71 13.8261L269.433 14.4504C269.217 14.2397 268.978 14.0933 268.716 14.0111C268.454 13.9237 268.164 13.88 267.845 13.88C267.588 13.88 267.357 13.916 267.151 13.9879C266.946 14.0547 266.784 14.1549 266.666 14.2885C266.553 14.417 266.496 14.5789 266.496 14.7741C266.496 14.9899 266.563 15.1595 266.697 15.2828C266.835 15.4061 267.074 15.5012 267.413 15.568L268.292 15.7376C268.821 15.8352 269.212 16.0022 269.464 16.2386C269.715 16.4698 269.841 16.7729 269.841 17.148C269.841 17.4666 269.756 17.7467 269.587 17.9882C269.417 18.2297 269.178 18.4198 268.87 18.5585C268.562 18.6973 268.199 18.7666 267.783 18.7666ZM272.902 18.7666C272.604 18.7666 272.318 18.7435 272.046 18.6973C271.779 18.6562 271.532 18.5919 271.306 18.5046C271.085 18.4121 270.89 18.299 270.72 18.1654L270.998 17.5334C271.173 17.667 271.357 17.7749 271.553 17.8571C271.753 17.9394 271.966 17.9984 272.192 18.0344C272.419 18.0652 272.655 18.0807 272.902 18.0807C273.318 18.0807 273.634 18.0036 273.85 17.8494C274.071 17.6901 274.181 17.4692 274.181 17.1866C274.181 17.0376 274.145 16.9142 274.073 16.8166C274.006 16.719 273.896 16.6393 273.742 16.5777C273.593 16.516 273.397 16.4621 273.156 16.4158L272.27 16.2463C271.766 16.1486 271.401 15.9765 271.175 15.7299C270.954 15.4781 270.844 15.1595 270.844 14.7741C270.844 14.4555 270.934 14.1781 271.113 13.9417C271.298 13.7053 271.55 13.5229 271.869 13.3945C272.192 13.2609 272.56 13.1941 272.971 13.1941C273.228 13.1941 273.469 13.2172 273.695 13.2634C273.927 13.3097 274.137 13.3816 274.327 13.4792C274.518 13.5717 274.685 13.6873 274.828 13.8261L274.551 14.4504C274.335 14.2397 274.096 14.0933 273.834 14.0111C273.572 13.9237 273.282 13.88 272.963 13.88C272.706 13.88 272.475 13.916 272.27 13.9879C272.064 14.0547 271.902 14.1549 271.784 14.2885C271.671 14.417 271.614 14.5789 271.614 14.7741C271.614 14.9899 271.681 15.1595 271.815 15.2828C271.954 15.4061 272.192 15.5012 272.532 15.568L273.41 15.7376C273.94 15.8352 274.33 16.0022 274.582 16.2386C274.834 16.4698 274.96 16.7729 274.96 17.148C274.96 17.4666 274.875 17.7467 274.705 17.9882C274.536 18.2297 274.297 18.4198 273.988 18.5585C273.68 18.6973 273.318 18.7666 272.902 18.7666ZM276.17 18.6973V13.2634H279.762V13.9263H276.933V15.6142H279.6V16.2771H276.933V18.0344H279.762V18.6973H276.17ZM283.336 18.6973V13.2634H284.199L286.095 17.0324H286.057L287.937 13.2634H288.793V18.6973H288.061V14.381H288.084L286.342 17.834H285.795L284.045 14.3733H284.068V18.6973H283.336ZM289.826 18.6973L292.23 13.2634H292.916L295.321 18.6973H294.512L293.857 17.1558L294.219 17.4101H290.92L291.282 17.1558L290.627 18.6973H289.826ZM292.554 14.1267L291.367 16.9168L291.174 16.755H293.965L293.772 16.9168L292.585 14.1267H292.554ZM295.598 18.6973L297.586 15.7684L297.594 16.0613L295.698 13.2634H296.592L298.072 15.4832H298.041L299.529 13.2634H300.415L298.511 16.0613V15.7607L300.515 18.6973H299.613L298.026 16.3387H298.072L296.484 18.6973H295.598Z" fill="white"/>
<path d="M242.958 71.6866V66.2528H243.636L246.865 70.5459H246.842V66.2528H247.582V71.6866H246.881L243.674 67.4167H243.697V71.6866H242.958ZM249.167 71.6866V66.2528H249.938V71.6866H249.167ZM253.08 71.6866L250.722 66.2528H251.562L253.45 70.7694H253.404L255.292 66.2528H256.117L253.759 71.6866H253.08ZM256.912 71.6866V66.2528H260.504V66.9157H257.675V68.6036H260.342V69.2665H257.675V71.0238H260.504V71.6866H256.912ZM261.197 71.6866L263.602 66.2528H264.288L266.692 71.6866H265.883L265.228 70.1451L265.59 70.3995H262.291L262.654 70.1451L261.999 71.6866H261.197ZM263.925 67.1161L262.738 69.9062L262.546 69.7443H265.336L265.143 69.9062L263.956 67.1161H263.925ZM269.811 71.756C269.097 71.756 268.549 71.571 268.169 71.2011C267.794 70.8311 267.607 70.2839 267.607 69.5594V66.2528H268.377V69.5516C268.377 70.0655 268.498 70.4432 268.74 70.6847C268.986 70.921 269.343 71.0392 269.811 71.0392C270.284 71.0392 270.641 70.921 270.882 70.6847C271.124 70.4432 271.245 70.0655 271.245 69.5516V66.2528H272.023V69.5594C272.023 70.2787 271.833 70.826 271.453 71.2011C271.078 71.571 270.53 71.756 269.811 71.756ZM275.73 71.6866V66.2528H278.019C278.409 66.2528 278.743 66.3196 279.021 66.4532C279.298 66.5817 279.509 66.7692 279.653 67.0159C279.802 67.2625 279.876 67.5605 279.876 67.9099C279.876 68.2491 279.802 68.5445 279.653 68.7963C279.504 69.0481 279.291 69.2433 279.013 69.3821C278.741 69.5157 278.409 69.5825 278.019 69.5825H276.501V71.6866H275.73ZM276.501 68.9273H277.903C278.294 68.9273 278.589 68.8451 278.79 68.6807C278.995 68.5111 279.098 68.2542 279.098 67.9099C279.098 67.5708 278.998 67.319 278.797 67.1546C278.597 66.9902 278.299 66.908 277.903 66.908H276.501V68.9273ZM283.372 71.756C282.981 71.756 282.627 71.6918 282.308 71.5633C281.995 71.4349 281.727 71.2499 281.506 71.0084C281.285 70.7669 281.113 70.474 280.99 70.1297C280.872 69.7854 280.813 69.3975 280.813 68.9659C280.813 68.5342 280.872 68.1489 280.99 67.8097C281.108 67.4655 281.278 67.1726 281.499 66.9311C281.725 66.6896 281.995 66.5046 282.308 66.3761C282.627 66.2477 282.981 66.1834 283.372 66.1834C283.767 66.1834 284.122 66.2477 284.435 66.3761C284.754 66.5046 285.024 66.6896 285.245 66.9311C285.471 67.1674 285.643 67.4578 285.761 67.802C285.879 68.1463 285.938 68.5317 285.938 68.9582C285.938 69.3898 285.877 69.7777 285.753 70.122C285.635 70.4663 285.466 70.7617 285.245 71.0084C285.024 71.2499 284.754 71.4349 284.435 71.5633C284.122 71.6918 283.767 71.756 283.372 71.756ZM283.372 71.07C283.747 71.07 284.063 70.9904 284.32 70.8311C284.582 70.6667 284.782 70.4277 284.921 70.1143C285.065 69.8009 285.137 69.4181 285.137 68.9659C285.137 68.5086 285.067 68.1257 284.929 67.8174C284.79 67.504 284.589 67.2676 284.327 67.1083C284.065 66.9491 283.747 66.8694 283.372 66.8694C283.002 66.8694 282.686 66.9491 282.424 67.1083C282.162 67.2676 281.961 67.504 281.822 67.8174C281.684 68.1257 281.614 68.5086 281.614 68.9659C281.614 69.4181 281.684 69.8009 281.822 70.1143C281.961 70.4277 282.162 70.6667 282.424 70.8311C282.686 70.9904 283.002 71.07 283.372 71.07ZM289.156 71.756C288.858 71.756 288.573 71.7329 288.3 71.6866C288.033 71.6455 287.787 71.5813 287.561 71.494C287.34 71.4015 287.144 71.2884 286.975 71.1548L287.252 70.5228C287.427 70.6564 287.612 70.7643 287.807 70.8465C288.008 70.9287 288.221 70.9878 288.447 71.0238C288.673 71.0546 288.909 71.07 289.156 71.07C289.572 71.07 289.888 70.993 290.104 70.8388C290.325 70.6795 290.435 70.4586 290.435 70.176C290.435 70.0269 290.399 69.9036 290.328 69.806C290.261 69.7084 290.15 69.6287 289.996 69.5671C289.847 69.5054 289.652 69.4515 289.41 69.4052L288.524 69.2356C288.02 69.138 287.656 68.9659 287.429 68.7192C287.209 68.4675 287.098 68.1489 287.098 67.7635C287.098 67.4449 287.188 67.1674 287.368 66.9311C287.553 66.6947 287.805 66.5123 288.123 66.3838C288.447 66.2502 288.814 66.1834 289.225 66.1834C289.482 66.1834 289.724 66.2066 289.95 66.2528C290.181 66.2991 290.392 66.371 290.582 66.4686C290.772 66.5611 290.939 66.6767 291.083 66.8155L290.805 67.4398C290.59 67.2291 290.351 67.0827 290.089 67.0004C289.827 66.9131 289.536 66.8694 289.218 66.8694C288.961 66.8694 288.729 66.9054 288.524 66.9773C288.318 67.0441 288.157 67.1443 288.038 67.2779C287.925 67.4064 287.869 67.5682 287.869 67.7635C287.869 67.9793 287.936 68.1489 288.069 68.2722C288.208 68.3955 288.447 68.4906 288.786 68.5574L289.665 68.7269C290.194 68.8246 290.584 68.9916 290.836 69.2279C291.088 69.4592 291.214 69.7623 291.214 70.1374C291.214 70.456 291.129 70.736 290.96 70.9775C290.79 71.2191 290.551 71.4092 290.243 71.5479C289.934 71.6866 289.572 71.756 289.156 71.756ZM292.424 71.6866V66.2528H293.195V71.6866H292.424ZM296.091 71.6866V66.9311H294.156V66.2528H298.796V66.9311H296.862V71.6866H296.091ZM299.771 71.6866V66.2528H300.541V71.6866H299.771ZM302.119 71.6866V66.2528H305.688V66.9157H302.89V68.6422H305.534V69.305H302.89V71.6866H302.119Z" fill="white"/>
<path d="M68.5229 41.5012C68.0399 41.5012 67.5569 41.4498 67.0738 41.3471C66.6011 41.2546 66.1592 41.121 65.7481 40.9463C65.3371 40.7716 64.9928 40.5712 64.7153 40.3451L65.5786 38.2332C66.0308 38.5415 66.4983 38.7779 66.9814 38.9423C67.4746 39.0965 67.9679 39.1735 68.4612 39.1735C68.9853 39.1735 69.3913 39.0605 69.679 38.8344C69.9668 38.6083 70.1106 38.2897 70.1106 37.8787C70.1106 37.4676 69.9719 37.1439 69.6944 36.9075C69.4169 36.6712 69.047 36.553 68.5845 36.553C68.2351 36.553 67.9114 36.6146 67.6134 36.738C67.3256 36.851 67.0533 37.0257 66.7964 37.2621H65.0236V30.464H72.1146V32.7608H67.6905V35.181H67.043C67.2897 34.8933 67.6082 34.6775 67.9988 34.5336C68.3995 34.3794 68.8415 34.3024 69.3245 34.3024C70.013 34.3024 70.6193 34.4514 71.1434 34.7494C71.6676 35.0371 72.0735 35.4431 72.3612 35.9672C72.6593 36.4913 72.8083 37.1028 72.8083 37.8016C72.8083 38.5415 72.6336 39.1941 72.2842 39.7593C71.945 40.3143 71.4517 40.7459 70.8043 41.0542C70.1672 41.3522 69.4067 41.5012 68.5229 41.5012ZM73.8813 41.3317V38.5261H76.7331V41.3317H73.8813ZM82.043 41.5012C81.149 41.5012 80.3936 41.2803 79.777 40.8384C79.1604 40.3965 78.6928 39.7593 78.3742 38.9269C78.0556 38.0842 77.8964 37.0617 77.8964 35.8593C77.8964 34.6466 78.0556 33.6292 78.3742 32.8071C78.6928 31.9747 79.1604 31.3478 79.777 30.9264C80.3936 30.5051 81.149 30.2944 82.043 30.2944C82.9371 30.2944 83.6925 30.5051 84.3091 30.9264C84.9257 31.3478 85.3933 31.9747 85.7118 32.8071C86.0304 33.6292 86.1897 34.6415 86.1897 35.8439C86.1897 37.0463 86.0304 38.0688 85.7118 38.9115C85.3933 39.7542 84.9257 40.3965 84.3091 40.8384C83.6925 41.2803 82.9371 41.5012 82.043 41.5012ZM82.043 39.2506C82.5363 39.2506 82.9011 38.9834 83.1375 38.449C83.3841 37.9044 83.5075 37.036 83.5075 35.8439C83.5075 34.662 83.3841 33.8194 83.1375 33.3158C82.9011 32.802 82.5363 32.545 82.043 32.545C81.5497 32.545 81.1798 32.802 80.9331 33.3158C80.6968 33.8194 80.5786 34.6672 80.5786 35.8593C80.5786 37.0411 80.6968 37.9044 80.9331 38.449C81.1798 38.9834 81.5497 39.2506 82.043 39.2506ZM88.0489 41.3317V39.0348H90.4691V32.8225H91.764L88.6347 34.6107L87.6019 32.5605L91.3015 30.464H93.2901V39.0348H95.5561V41.3317H88.0489ZM101.302 41.3317V30.464H104.138V35.1194H104.169L108.393 30.464H111.753L106.389 36.1984V35.0423L111.923 41.3317H108.547L104.169 36.4297H104.138V41.3317H101.302ZM112.122 41.3317V33.7474H114.789V35.0731H114.619C114.763 34.7648 114.953 34.5028 115.19 34.2869C115.426 34.0609 115.704 33.8862 116.022 33.7628C116.351 33.6395 116.711 33.5778 117.101 33.5778C117.656 33.5778 118.129 33.7114 118.519 33.9786C118.92 34.2458 119.208 34.6518 119.383 35.1964H119.167C119.403 34.6929 119.758 34.2972 120.23 34.0095C120.703 33.7217 121.227 33.5778 121.803 33.5778C122.399 33.5778 122.887 33.696 123.267 33.9324C123.647 34.1585 123.93 34.5182 124.115 35.0115C124.31 35.4945 124.408 36.1059 124.408 36.8459V41.3317H121.664V36.9229C121.664 36.481 121.597 36.1625 121.464 35.9672C121.33 35.7719 121.109 35.6743 120.801 35.6743C120.554 35.6743 120.338 35.736 120.153 35.8593C119.979 35.9723 119.845 36.147 119.753 36.3834C119.67 36.6095 119.629 36.887 119.629 37.2158V41.3317H116.885V36.9229C116.885 36.481 116.819 36.1625 116.685 35.9672C116.551 35.7719 116.33 35.6743 116.022 35.6743C115.775 35.6743 115.565 35.736 115.39 35.8593C115.215 35.9723 115.082 36.147 114.989 36.3834C114.907 36.6095 114.866 36.887 114.866 37.2158V41.3317H112.122Z" fill="white"/>
<path d="M70.4348 94.3212V92.2401L73.7028 88.818C73.97 88.5302 74.1807 88.2733 74.3348 88.0472C74.4992 87.8108 74.6174 87.595 74.6894 87.3998C74.7716 87.1942 74.8127 86.9887 74.8127 86.7832C74.8127 86.3926 74.6842 86.0998 74.4273 85.9045C74.1704 85.7092 73.8004 85.6116 73.3174 85.6116C72.9063 85.6116 72.485 85.6887 72.0534 85.8428C71.632 85.9867 71.2107 86.2231 70.7893 86.5519L69.9107 84.4863C70.3834 84.1163 70.9589 83.8235 71.6372 83.6076C72.3154 83.3918 73.0091 83.2839 73.7182 83.2839C74.5609 83.2839 75.2649 83.4072 75.8301 83.6539C76.4056 83.9005 76.8423 84.2602 77.1404 84.7329C77.4384 85.1954 77.5874 85.7709 77.5874 86.4594C77.5874 86.7883 77.5514 87.112 77.4795 87.4306C77.4076 87.7389 77.2945 88.0472 77.1404 88.3555C76.9862 88.6535 76.7858 88.9618 76.5392 89.2804C76.2925 89.599 75.9945 89.9279 75.6451 90.267L73.1478 92.7334V92.0243H77.9882V94.3212H70.4348ZM83.2387 94.4907C82.3447 94.4907 81.5893 94.2698 80.9727 93.8279C80.3561 93.386 79.8885 92.7488 79.5699 91.9164C79.2514 91.0737 79.0921 90.0512 79.0921 88.8488C79.0921 87.6361 79.2514 86.6187 79.5699 85.7966C79.8885 84.9642 80.3561 84.3373 80.9727 83.9159C81.5893 83.4946 82.3447 83.2839 83.2387 83.2839C84.1328 83.2839 84.8882 83.4946 85.5048 83.9159C86.1214 84.3373 86.589 84.9642 86.9075 85.7966C87.2261 86.6187 87.3854 87.631 87.3854 88.8334C87.3854 90.0358 87.2261 91.0583 86.9075 91.901C86.589 92.7437 86.1214 93.386 85.5048 93.8279C84.8882 94.2698 84.1328 94.4907 83.2387 94.4907ZM83.2387 92.2401C83.732 92.2401 84.0968 91.9729 84.3332 91.4385C84.5799 90.8939 84.7032 90.0255 84.7032 88.8334C84.7032 87.6515 84.5799 86.8089 84.3332 86.3053C84.0968 85.7915 83.732 85.5345 83.2387 85.5345C82.7454 85.5345 82.3755 85.7915 82.1288 86.3053C81.8925 86.8089 81.7743 87.6567 81.7743 88.8488C81.7743 90.0306 81.8925 90.8939 82.1288 91.4385C82.3755 91.9729 82.7454 92.2401 83.2387 92.2401ZM92.9309 89.5425V86.7369H95.7827V89.5425H92.9309ZM92.9309 94.3212V91.5156H95.7827V94.3212H92.9309ZM105.503 94.4907C104.609 94.4907 103.854 94.2698 103.237 93.8279C102.621 93.386 102.153 92.7488 101.835 91.9164C101.516 91.0737 101.357 90.0512 101.357 88.8488C101.357 87.6361 101.516 86.6187 101.835 85.7966C102.153 84.9642 102.621 84.3373 103.237 83.9159C103.854 83.4946 104.609 83.2839 105.503 83.2839C106.397 83.2839 107.153 83.4946 107.769 83.9159C108.386 84.3373 108.854 84.9642 109.172 85.7966C109.491 86.6187 109.65 87.631 109.65 88.8334C109.65 90.0358 109.491 91.0583 109.172 91.901C108.854 92.7437 108.386 93.386 107.769 93.8279C107.153 94.2698 106.397 94.4907 105.503 94.4907ZM105.503 92.2401C105.997 92.2401 106.361 91.9729 106.598 91.4385C106.844 90.8939 106.968 90.0255 106.968 88.8334C106.968 87.6515 106.844 86.8089 106.598 86.3053C106.361 85.7915 105.997 85.5345 105.503 85.5345C105.01 85.5345 104.64 85.7915 104.393 86.3053C104.157 86.8089 104.039 87.6567 104.039 88.8488C104.039 90.0306 104.157 90.8939 104.393 91.4385C104.64 91.9729 105.01 92.2401 105.503 92.2401ZM114.746 94.4907C113.431 94.4907 112.393 94.2133 111.633 93.6583C110.882 93.1034 110.507 92.3326 110.507 91.346C110.507 90.8219 110.61 90.3595 110.816 89.9587C111.031 89.5579 111.324 89.2342 111.694 88.9875C112.064 88.7306 112.486 88.5765 112.958 88.5251V88.9721C112.527 88.8796 112.146 88.7101 111.818 88.4634C111.499 88.2065 111.247 87.8931 111.062 87.5231C110.888 87.1429 110.8 86.7215 110.8 86.259C110.8 85.3341 111.155 84.6096 111.864 84.0855C112.573 83.5511 113.534 83.2839 114.746 83.2839C115.969 83.2839 116.93 83.5511 117.629 84.0855C118.338 84.6096 118.693 85.3341 118.693 86.259C118.693 86.7215 118.6 87.148 118.415 87.5385C118.241 87.9187 117.994 88.2322 117.675 88.4788C117.367 88.7255 117.007 88.8848 116.596 88.9567V88.5251C117.059 88.597 117.47 88.7614 117.829 89.0184C118.189 89.265 118.472 89.5887 118.677 89.9895C118.883 90.38 118.986 90.8322 118.986 91.346C118.986 92.3326 118.605 93.1034 117.845 93.6583C117.095 94.2133 116.062 94.4907 114.746 94.4907ZM114.746 92.3634C115.291 92.3634 115.707 92.2607 115.995 92.0551C116.283 91.8393 116.427 91.531 116.427 91.1302C116.427 90.7192 116.283 90.4109 115.995 90.2053C115.707 89.9998 115.291 89.897 114.746 89.897C114.202 89.897 113.786 89.9998 113.498 90.2053C113.21 90.4109 113.066 90.7192 113.066 91.1302C113.066 91.531 113.21 91.8393 113.498 92.0551C113.786 92.2607 114.202 92.3634 114.746 92.3634ZM114.746 87.7543C115.188 87.7543 115.527 87.6515 115.764 87.446C116.01 87.2302 116.134 86.9425 116.134 86.5828C116.134 86.2231 116.01 85.9405 115.764 85.7349C115.527 85.5191 115.188 85.4112 114.746 85.4112C114.315 85.4112 113.976 85.5191 113.729 85.7349C113.493 85.9405 113.374 86.2231 113.374 86.5828C113.374 86.9425 113.493 87.2302 113.729 87.446C113.976 87.6515 114.315 87.7543 114.746 87.7543Z" fill="white"/>
<path d="M252.013 41.3317V39.5127H247.605V37.5241L252.461 30.464H254.742V37.37H256.16V39.5127H254.742V41.3317H252.013ZM252.013 37.37V33.8245H252.445L249.609 38.0328V37.37H252.013ZM261.767 41.3317V30.464H264.604V35.1194H264.635L268.858 30.464H272.219L266.854 36.1984V35.0423L272.388 41.3317H269.012L264.635 36.4297H264.604V41.3317H261.767ZM272.587 41.3317V33.7474H275.254V35.0731H275.085C275.229 34.7648 275.419 34.5028 275.655 34.2869C275.891 34.0609 276.169 33.8862 276.487 33.7628C276.816 33.6395 277.176 33.5778 277.566 33.5778C278.121 33.5778 278.594 33.7114 278.985 33.9786C279.385 34.2458 279.673 34.6518 279.848 35.1964H279.632C279.868 34.6929 280.223 34.2972 280.696 34.0095C281.168 33.7217 281.693 33.5778 282.268 33.5778C282.864 33.5778 283.352 33.696 283.733 33.9324C284.113 34.1585 284.395 34.5182 284.58 35.0115C284.776 35.4945 284.873 36.1059 284.873 36.8459V41.3317H282.129V36.9229C282.129 36.481 282.063 36.1625 281.929 35.9672C281.795 35.7719 281.574 35.6743 281.266 35.6743C281.019 35.6743 280.804 35.736 280.619 35.8593C280.444 35.9723 280.31 36.147 280.218 36.3834C280.136 36.6095 280.095 36.887 280.095 37.2158V41.3317H277.351V36.9229C277.351 36.481 277.284 36.1625 277.15 35.9672C277.017 35.7719 276.796 35.6743 276.487 35.6743C276.241 35.6743 276.03 35.736 275.855 35.8593C275.681 35.9723 275.547 36.147 275.455 36.3834C275.372 36.6095 275.331 36.887 275.331 37.2158V41.3317H272.587ZM287.345 42.5803L285.341 41.9945L289.364 29.462L291.368 30.0632L287.345 42.5803ZM292.026 41.3317V30.464H294.862V34.6569H299.348V30.464H302.169V41.3317H299.348V36.9846H294.862V41.3317H292.026Z" fill="white"/>
<path d="M257.761 94.3212V92.0243H260.181V85.812H261.476L258.346 87.6002L257.314 85.55L261.013 83.4535H263.002V92.0243H265.268V94.3212H257.761ZM270.241 94.4907C268.925 94.4907 267.888 94.2133 267.127 93.6583C266.377 93.1034 266.002 92.3326 266.002 91.346C266.002 90.8219 266.104 90.3595 266.31 89.9587C266.526 89.5579 266.819 89.2342 267.189 88.9875C267.559 88.7306 267.98 88.5765 268.453 88.5251V88.9721C268.021 88.8796 267.641 88.7101 267.312 88.4634C266.993 88.2065 266.742 87.8931 266.557 87.5231C266.382 87.1429 266.295 86.7215 266.295 86.259C266.295 85.3341 266.649 84.6096 267.358 84.0855C268.067 83.5511 269.028 83.2839 270.241 83.2839C271.464 83.2839 272.425 83.5511 273.124 84.0855C273.833 84.6096 274.187 85.3341 274.187 86.259C274.187 86.7215 274.095 87.148 273.91 87.5385C273.735 87.9187 273.488 88.2322 273.17 88.4788C272.861 88.7255 272.502 88.8848 272.091 88.9567V88.5251C272.553 88.597 272.964 88.7614 273.324 89.0184C273.684 89.265 273.966 89.5887 274.172 89.9895C274.377 90.38 274.48 90.8322 274.48 91.346C274.48 92.3326 274.1 93.1034 273.339 93.6583C272.589 94.2133 271.556 94.4907 270.241 94.4907ZM270.241 92.3634C270.786 92.3634 271.202 92.2607 271.49 92.0551C271.777 91.8393 271.921 91.531 271.921 91.1302C271.921 90.7192 271.777 90.4109 271.49 90.2053C271.202 89.9998 270.786 89.897 270.241 89.897C269.696 89.897 269.28 89.9998 268.992 90.2053C268.705 90.4109 268.561 90.7192 268.561 91.1302C268.561 91.531 268.705 91.8393 268.992 92.0551C269.28 92.2607 269.696 92.3634 270.241 92.3634ZM270.241 87.7543C270.683 87.7543 271.022 87.6515 271.258 87.446C271.505 87.2302 271.628 86.9425 271.628 86.5828C271.628 86.2231 271.505 85.9405 271.258 85.7349C271.022 85.5191 270.683 85.4112 270.241 85.4112C269.809 85.4112 269.47 85.5191 269.223 85.7349C268.987 85.9405 268.869 86.2231 268.869 86.5828C268.869 86.9425 268.987 87.2302 269.223 87.446C269.47 87.6515 269.809 87.7543 270.241 87.7543ZM280.103 94.3212V86.7369H282.769V88.0626H282.6C282.744 87.7543 282.934 87.4923 283.17 87.2764C283.407 87.0504 283.684 86.8757 284.003 86.7523C284.331 86.629 284.691 86.5674 285.082 86.5674C285.637 86.5674 286.109 86.7009 286.5 86.9681C286.901 87.2353 287.188 87.6413 287.363 88.1859H287.147C287.384 87.6824 287.738 87.2867 288.211 86.999C288.684 86.7112 289.208 86.5674 289.783 86.5674C290.379 86.5674 290.868 86.6855 291.248 86.9219C291.628 87.148 291.911 87.5077 292.096 88.001C292.291 88.484 292.388 89.0954 292.388 89.8354V94.3212H289.645V89.9124C289.645 89.4705 289.578 89.152 289.444 88.9567C289.311 88.7614 289.09 88.6638 288.781 88.6638C288.535 88.6638 288.319 88.7255 288.134 88.8488C287.959 88.9618 287.826 89.1365 287.733 89.3729C287.651 89.599 287.61 89.8765 287.61 90.2053V94.3212H284.866V89.9124C284.866 89.4705 284.799 89.152 284.665 88.9567C284.532 88.7614 284.311 88.6638 284.003 88.6638C283.756 88.6638 283.545 88.7255 283.371 88.8488C283.196 88.9618 283.062 89.1365 282.97 89.3729C282.888 89.599 282.846 89.8765 282.846 90.2053V94.3212H280.103Z" fill="white"/>
</svg>
