<?xml version="1.0" encoding="UTF-8"?>
<svg id="Calque_1" data-name="Calque 1" xmlns="http://www.w3.org/2000/svg" viewBox="0 0 1920 1080">
  <defs>
    <style>
      .cls-1 {
        fill: #fff;
      }
    </style>
  </defs>
  <path d="M786.3,302.72l-83.81,278.19s-40.74,164.12,100.1,211.84c0,0,204.12,77.27,292.1-125.2.77-1.78,1.45-3.6,2.02-5.45l113.27-368.69s-82.64-22.12-129.2,165.28l-41.9,144.33s-15.4,96.32-141.12,99c0,0-74.57,10.94-72.75-83.17.13-6.62,1.19-13.2,3.1-19.54l58.14-193.68s26.82-49.01-31.47-81.46c-15.82-8.81-37.9-16.39-68.48-21.45Z"/>
  <path class="cls-1" d="M873.67,336.97c-51.28,140.84-78.08,251.05-76.44,295.46,1.06,28.69,11.88,50.4,11.88,50.4,6.61,11.25,19.59,29.99,42.15,45.9,6.1,4.3,32.86,22.45,72.35,26.29,59.54,5.79,103.66-25.29,117.9-35.64,16.28-11.84,27.64-24.14,34.66-32.67-12.15,20.48-25.91,33.7-35.24,41.4-15.08,12.44-29.16,19.19-40.29,24.44-7.6,3.58-20.41,9.55-36.86,13.67-4.96,1.24-35.2,8.53-67.94,2.82-50.56-8.82-102.81-47.85-118.63-100.34-9-29.86-3.93-55.71-.88-70.31,21.13-101.43,56.74-205.01,82.02-272.73"/>
  <path d="M1214.34,293.41c18.19,27.84,22.24,1.54,27.08,2.86,4.84,1.32,29.18,0,48.83,20.68,19.65,20.68,52.13,29.47,52.13,29.47,12.32-8.8-21.36-24.88-35.19-33.87-13.84-8.99-60.49-31.67-60.49-31.67,108.66-14.74,84.9-59.17,84.9-59.17-23.1-55.21-90.62,37.83-90.62,37.83-25.51-8.36-25.51,13.2-25.51,13.2-25.73-4.62-73.36,25.87-73.36,25.87-70.03,55.44-87.53,167.04-87.53,167.04l-18.97,71.49c-12.4,54.71-37.2,100.01-37.2,100.01-39.39,60.62-96.28,64.87-96.28,64.87,0,0,131.13,15.82,155.08-147.07l48.54-161.41c-5.39-19.46,25.79-120,108.6-100.13Z"/>
  <path d="M818.4,313.09l1.86-27.59s-85.6-17.04-88.37-41.61l-61.42-24.97s-15.45-15.85,7.53-14.66l57.46,21.8s22.98-35.66,59.44,2.38l34.48,34.87s22.98-9.11,23.78,15.45c0,0,95.9-36.06,80.44,27.74,0,0-17.04,48.63-84.01-9.37l-13.99,21.17"/>
  <path class="cls-1" d="M807.54,261.15s-34.59-47.5-55.59-37.44c0,0-19.88,17.97,55.59,37.44Z"/>
  <path class="cls-1" d="M866.97,287.24s61.83-24.82,54.87,9.43c0,0-9.07,25.84-54.87-9.43Z"/>
  <path class="cls-1" d="M1258.31,261.85s43.91-64.3,59.79-36.66c0,0,18.53,29.21-59.79,36.66Z"/>
</svg>